<svg width="375" height="375" viewBox="0 0 375 375" fill="none" xmlns="http://www.w3.org/2000/svg">
<path d="M374.037 201.963C374.021 202.168 374.006 202.373 373.989 202.578C373.88 203.946 373.756 205.31 373.618 206.669C373.602 206.826 373.586 206.983 373.569 207.141C373.514 207.675 373.456 208.208 373.396 208.741C373.377 208.908 373.359 209.075 373.34 209.242C373.269 209.86 373.194 210.476 373.117 211.092C373.093 211.287 373.067 211.482 373.042 211.677C372.975 212.198 372.905 212.718 372.834 213.238C372.808 213.429 372.781 213.62 372.754 213.811C372.672 214.394 372.588 214.977 372.501 215.56C372.474 215.739 372.446 215.919 372.419 216.099C372.335 216.644 372.249 217.189 372.161 217.732C372.124 217.958 372.087 218.184 372.05 218.41C371.968 218.905 371.885 219.398 371.799 219.892C371.771 220.052 371.743 220.213 371.715 220.374C371.604 221.002 371.488 221.628 371.371 222.254C371.334 222.454 371.296 222.653 371.258 222.853C371.165 223.341 371.07 223.828 370.973 224.315C370.938 224.492 370.903 224.668 370.867 224.845C370.857 224.896 370.847 224.948 370.837 225C353.464 310.584 277.8 375 187.089 375C105.45 375 36.0013 322.824 10.2617 250H37.0459C61.5351 308.723 119.49 350 187.089 350C263.928 350 328.311 296.667 345.24 225H345.237C346.048 221.568 346.749 218.093 347.339 214.581C348.143 209.788 348.741 204.925 349.115 200H374.178C374.135 200.655 374.087 201.309 374.037 201.963ZM99.1924 117.278L99.1904 117.279L257.308 275.396L257.31 275.396L275.076 293.162L275.074 293.163L275.075 293.164C274.414 293.716 273.745 294.26 273.073 294.799C272.979 294.874 272.885 294.95 272.79 295.025C272.531 295.233 272.27 295.438 272.009 295.644C271.873 295.751 271.737 295.858 271.601 295.965C271.342 296.166 271.083 296.366 270.823 296.565C270.696 296.663 270.57 296.761 270.442 296.858C270.116 297.107 269.788 297.354 269.46 297.601C269.409 297.639 269.358 297.677 269.307 297.715C268.956 297.977 268.604 298.238 268.251 298.497C268.21 298.527 268.17 298.556 268.129 298.586C267.785 298.838 267.44 299.088 267.093 299.337C267.052 299.366 267.011 299.395 266.97 299.425C266.603 299.687 266.235 299.947 265.866 300.205C265.821 300.236 265.776 300.267 265.731 300.299C262.639 302.459 259.455 304.495 256.184 306.4C256.095 306.452 256.006 306.504 255.917 306.556C255.324 306.899 254.73 307.24 254.132 307.575L254.128 307.571C234.295 318.67 211.432 325 187.089 325C164.583 325 143.341 319.591 124.589 310.004V310.006C124.482 309.951 124.377 309.895 124.271 309.84C123.936 309.668 123.603 309.495 123.271 309.32C123.073 309.217 122.876 309.113 122.679 309.009C122.338 308.828 121.998 308.644 121.658 308.46C121.49 308.369 121.32 308.279 121.152 308.187C120.696 307.936 120.241 307.684 119.787 307.429C119.591 307.318 119.395 307.206 119.199 307.095C118.882 306.914 118.566 306.733 118.251 306.551C118.074 306.448 117.897 306.345 117.721 306.241C117.422 306.066 117.123 305.89 116.825 305.713C116.612 305.586 116.399 305.459 116.187 305.331C115.725 305.052 115.264 304.772 114.806 304.488C114.684 304.413 114.564 304.336 114.443 304.261C114.117 304.057 113.792 303.853 113.468 303.647C113.238 303.502 113.009 303.354 112.78 303.207C112.528 303.044 112.276 302.881 112.024 302.717C111.808 302.575 111.591 302.434 111.375 302.291C111.069 302.089 110.765 301.885 110.461 301.681C110.158 301.477 109.856 301.272 109.555 301.066C109.266 300.869 108.977 300.672 108.69 300.473C108.46 300.312 108.231 300.15 108.001 299.988C107.782 299.834 107.563 299.679 107.345 299.523C107.105 299.353 106.866 299.181 106.628 299.009C106.413 298.853 106.199 298.697 105.984 298.54C105.131 297.916 104.285 297.281 103.446 296.638C103.226 296.469 103.007 296.3 102.788 296.13C102.553 295.947 102.318 295.763 102.084 295.579C101.911 295.443 101.738 295.306 101.565 295.169C101.297 294.955 101.029 294.742 100.762 294.526C100.617 294.409 100.473 294.291 100.328 294.173C100.082 293.972 99.834 293.773 99.5889 293.57V200H125.84C126.023 200.901 126.226 201.794 126.447 202.681C126.71 203.734 126.999 204.778 127.314 205.81C127.426 206.173 127.54 206.534 127.657 206.895C127.907 207.662 128.172 208.422 128.451 209.176C128.669 209.765 128.895 210.349 129.13 210.93C129.321 211.403 129.519 211.873 129.722 212.341C129.988 212.956 130.265 213.565 130.551 214.17C130.881 214.869 131.224 215.561 131.579 216.245C135.923 224.615 142.104 231.879 149.589 237.501V266.579C140.219 262.128 131.765 256.059 124.589 248.735V281.053C142.465 293.02 163.961 300 187.089 300C204.457 300 220.904 296.062 235.59 289.033L85.5537 138.998C78.5253 153.684 74.5889 170.132 74.5889 187.5C74.5889 200.649 76.8455 213.271 80.9912 225H3.3418C3.33129 224.948 3.32003 224.896 3.30957 224.845C3.27395 224.668 3.2402 224.492 3.20508 224.315C3.10813 223.828 3.0131 223.341 2.91992 222.853C2.88186 222.653 2.8431 222.454 2.80566 222.254C2.68841 221.628 2.57294 221.002 2.46191 220.374C2.4335 220.213 2.40691 220.052 2.37891 219.892C2.29302 219.398 2.20898 218.905 2.12695 218.41C2.0895 218.184 2.05227 217.958 2.01562 217.732C1.92746 217.189 1.84129 216.644 1.75781 216.099C1.73033 215.919 1.70373 215.739 1.67676 215.56C1.58939 214.977 1.50485 214.394 1.42285 213.811C1.39608 213.62 1.36995 213.429 1.34375 213.238C1.27238 212.718 1.20284 212.198 1.13574 211.677C1.11065 211.482 1.08504 211.287 1.06055 211.092C0.983257 210.476 0.909196 209.86 0.837891 209.242C0.818618 209.075 0.800084 208.908 0.78125 208.741C0.721161 208.208 0.663034 207.675 0.607422 207.141C0.591061 206.983 0.574567 206.826 0.558594 206.669C0.420545 205.31 0.297321 203.946 0.188477 202.578C0.172166 202.373 0.156276 202.168 0.140625 201.963C0.0907791 201.309 0.0431292 200.655 0 200H50.1504C49.7793 195.883 49.5889 191.714 49.5889 187.5C49.5889 163.157 55.9165 140.292 67.0146 120.459L67.0127 120.457C67.105 120.292 67.1991 120.128 67.292 119.964C67.3323 119.893 67.3727 119.821 67.4131 119.75C67.6073 119.408 67.8029 119.066 68 118.726C68.0711 118.603 68.1424 118.48 68.2139 118.357C70.0857 115.146 72.0842 112.018 74.2021 108.979C74.2765 108.873 74.3502 108.766 74.4248 108.659C74.6565 108.329 74.8905 108 75.125 107.672C75.1694 107.61 75.2133 107.547 75.2578 107.485C75.5113 107.132 75.7667 106.78 76.0234 106.429C76.0685 106.367 76.114 106.306 76.1592 106.244C76.3842 105.937 76.6094 105.631 76.8369 105.326C76.9005 105.241 76.9646 105.156 77.0283 105.071C77.2649 104.756 77.502 104.441 77.7412 104.128C77.7936 104.059 77.8469 103.991 77.8994 103.923C79.045 102.429 80.2193 100.958 81.4238 99.5127L81.4258 99.5117L99.1924 117.278ZM187.089 50C209.595 50 230.837 55.4085 249.589 64.9951V64.9932C249.742 65.0713 249.893 65.1518 250.046 65.2305C250.306 65.3646 250.565 65.5 250.824 65.6357C251.066 65.7624 251.308 65.8885 251.549 66.0166C251.844 66.1735 252.138 66.3322 252.432 66.4912C252.626 66.5964 252.821 66.7006 253.015 66.8066C253.298 66.9619 253.58 67.1202 253.862 67.2773C254.296 67.5186 254.728 67.762 255.158 68.0078C255.377 68.1325 255.595 68.257 255.812 68.3828C256.066 68.5292 256.318 68.6763 256.57 68.8242C256.775 68.9442 256.979 69.0646 257.183 69.1855C258.157 69.7639 259.123 70.3546 260.081 70.9561C260.262 71.0695 260.443 71.1826 260.623 71.2969C260.923 71.4869 261.221 71.6788 261.52 71.8711C261.685 71.9781 261.851 72.0856 262.017 72.1934C262.305 72.3813 262.594 72.5697 262.881 72.7598C263.041 72.8658 263.201 72.9724 263.36 73.0791C263.781 73.3603 264.2 73.644 264.618 73.9297C264.886 74.1128 265.154 74.2956 265.42 74.4805C265.697 74.6726 265.972 74.8665 266.247 75.0605C266.409 75.1748 266.571 75.2893 266.732 75.4043C267.023 75.6111 267.313 75.8193 267.602 76.0283C267.722 76.1152 267.841 76.2028 267.961 76.29C268.962 77.0195 269.954 77.7619 270.935 78.5176C271.059 78.6136 271.184 78.7092 271.309 78.8057C271.61 79.0397 271.91 79.2753 272.21 79.5117C272.285 79.5706 272.359 79.6295 272.434 79.6885C273.157 80.2622 273.877 80.8408 274.589 81.4287V175H248.338C248.155 174.101 247.952 173.209 247.731 172.324C247.534 171.532 247.321 170.746 247.094 169.967C246.911 169.342 246.721 168.721 246.52 168.104C246.269 167.337 246.004 166.577 245.726 165.823C245.508 165.234 245.282 164.65 245.047 164.069C244.849 163.581 244.646 163.096 244.437 162.614C244.176 162.014 243.905 161.419 243.626 160.829C243.295 160.129 242.952 159.436 242.596 158.75C241.772 157.164 240.883 155.617 239.932 154.114C239.682 153.72 239.428 153.329 239.17 152.941C235.22 147.001 230.282 141.775 224.589 137.498V108.42C233.959 112.871 242.412 118.94 249.589 126.264V93.9453C231.713 81.9789 210.216 75 187.089 75C169.721 75 153.272 78.9354 138.586 85.9639L288.622 236.001C295.651 221.315 299.589 204.868 299.589 187.5C299.589 174.351 297.332 161.729 293.187 150H370.836C370.846 150.051 370.857 150.103 370.867 150.154C370.902 150.328 370.936 150.503 370.971 150.677C371.063 151.143 371.155 151.609 371.244 152.076C371.286 152.294 371.328 152.512 371.369 152.73C371.485 153.349 371.599 153.968 371.709 154.589C371.73 154.706 371.749 154.823 371.77 154.94C371.866 155.489 371.959 156.039 372.05 156.589C372.087 156.815 372.124 157.041 372.161 157.267C372.237 157.733 372.311 158.201 372.383 158.669C372.411 158.852 372.44 159.035 372.468 159.218C372.567 159.874 372.662 160.531 372.754 161.188C372.778 161.363 372.802 161.537 372.826 161.712C372.895 162.216 372.963 162.72 373.028 163.226C373.054 163.422 373.08 163.617 373.104 163.813C373.185 164.45 373.262 165.088 373.336 165.727C373.356 165.904 373.376 166.081 373.396 166.258C373.456 166.791 373.514 167.324 373.569 167.858C373.582 167.979 373.595 168.099 373.607 168.219C373.748 169.598 373.874 170.983 373.984 172.371C374.001 172.579 374.017 172.788 374.033 172.996C374.084 173.663 374.134 174.331 374.178 175H324.027C324.398 179.117 324.589 183.286 324.589 187.5C324.589 211.843 318.26 234.707 307.161 254.54L307.164 254.543C307.083 254.688 306.999 254.832 306.917 254.978C306.856 255.086 306.793 255.194 306.731 255.303C306.553 255.618 306.374 255.933 306.192 256.246C306.135 256.345 306.077 256.445 306.02 256.544C304.651 258.896 303.214 261.203 301.713 263.464C301.621 263.602 301.531 263.74 301.438 263.878C301.226 264.195 301.011 264.511 300.796 264.827C300.739 264.91 300.683 264.994 300.626 265.077C300.132 265.799 299.63 266.516 299.122 267.228C299.04 267.343 298.958 267.459 298.875 267.574C298.669 267.862 298.461 268.148 298.253 268.434C298.175 268.54 298.097 268.646 298.02 268.752C297.801 269.05 297.581 269.348 297.359 269.645C297.274 269.759 297.188 269.874 297.102 269.988C296.901 270.255 296.7 270.522 296.498 270.787C296.365 270.962 296.23 271.136 296.096 271.311C295.932 271.523 295.768 271.735 295.604 271.946C295.464 272.125 295.325 272.303 295.185 272.481C295.006 272.709 294.827 272.935 294.646 273.161C294.541 273.294 294.434 273.426 294.328 273.559C293.808 274.206 293.284 274.849 292.753 275.486L99.1016 81.835C99.7433 81.3 100.391 80.7725 101.043 80.249C101.171 80.1464 101.298 80.0426 101.426 79.9404C101.679 79.7381 101.934 79.5374 102.189 79.3369C102.319 79.2351 102.448 79.1326 102.578 79.0312C102.848 78.821 103.119 78.6126 103.39 78.4043C103.52 78.304 103.65 78.2033 103.781 78.1035C104.038 77.9079 104.295 77.7134 104.553 77.5195C104.699 77.4094 104.846 77.3 104.993 77.1904C105.254 76.9957 105.516 76.8013 105.778 76.6084C105.924 76.5016 106.07 76.3962 106.216 76.29C106.474 76.102 106.732 75.9138 106.991 75.7275C107.133 75.6259 107.275 75.525 107.417 75.4238C107.694 75.2263 107.972 75.0295 108.251 74.834C108.363 74.7552 108.476 74.6771 108.589 74.5986C108.881 74.3952 109.173 74.1924 109.467 73.9912C109.603 73.898 109.74 73.8056 109.876 73.7129C110.097 73.5627 110.317 73.4116 110.539 73.2627L110.765 73.1123C110.913 73.0132 111.062 72.9159 111.211 72.8174C113.041 71.6038 114.902 70.4325 116.792 69.3057C116.861 69.2642 116.93 69.222 117 69.1807C117.298 69.0038 117.597 68.829 117.896 68.6543C118.047 68.5666 118.197 68.4787 118.348 68.3916C118.631 68.2278 118.915 68.0651 119.199 67.9033C119.348 67.8184 119.498 67.7338 119.647 67.6494C119.78 67.5745 119.913 67.4984 120.046 67.4238L120.048 67.4258C139.881 56.3278 162.746 50 187.089 50ZM187.089 0C268.727 0 338.176 52.1758 363.916 125H337.132C312.643 66.2767 254.687 25 187.089 25C110.249 25 45.8666 78.3325 28.9375 150H28.9404C28.1463 153.362 27.4573 156.764 26.875 160.203C26.514 162.337 26.1939 164.486 25.917 166.647C25.8589 167.1 25.8024 167.553 25.748 168.007C25.4711 170.323 25.2409 172.655 25.0625 175H0C0.0440314 174.331 0.0925231 173.663 0.143555 172.996C0.1595 172.788 0.175756 172.579 0.192383 172.371C0.303248 170.983 0.429356 169.598 0.570312 168.219C0.582586 168.099 0.594922 167.978 0.607422 167.858C0.663037 167.324 0.721158 166.791 0.78125 166.258C0.801222 166.081 0.820355 165.904 0.84082 165.727C0.914687 165.088 0.991996 164.45 1.07227 163.813C1.09699 163.617 1.12311 163.422 1.14844 163.226C1.21375 162.72 1.28126 162.216 1.35059 161.712C1.37459 161.537 1.39836 161.363 1.42285 161.188C1.51526 160.531 1.60977 159.874 1.70898 159.218C1.73669 159.035 1.76669 158.852 1.79492 158.669C1.86715 158.201 1.93995 157.733 2.01562 157.267C2.05227 157.041 2.0895 156.815 2.12695 156.589C2.21824 156.039 2.31213 155.489 2.4082 154.94C2.42871 154.823 2.44802 154.706 2.46875 154.589C2.57863 153.968 2.69262 153.349 2.80859 152.73C2.84953 152.512 2.8919 152.294 2.93359 152.076C3.0229 151.609 3.11329 151.143 3.20605 150.677C3.24074 150.503 3.27441 150.328 3.30957 150.154C3.31997 150.103 3.33038 150.051 3.34082 150C20.7134 64.4161 96.3781 0 187.089 0Z" fill="#D9D9D9"/>
</svg>
